# xmcd
#
# Track frame offsets:
#	150
#	13590
#	28373
#	43367
#	57434
#	70659
#	83941
#	96155
#	109696
#	122874
#	136584
#	150279
#	163728
#	174201
#	186997
#	199386
#	212600
#	227037
#	239730
#	253871
#	266430
#	279003
#	290643
#	302497
#	317536
#	332105
#
# Disc length: 4603 seconds
#
# Revision: 0
# Processed by: cddbd v1.5.2PL0 Copyright (c) Steve Scherf et al.
# Submitted via: dBpowerAMP V4.0
#
DISCID=7711f91a
DTITLE=Bill Monroe - All the Classic Releases 1937-1949 (4 of 4)
DYEAR=1900
DGENRE=Bluegrass
TTITLE0=Summertime Is Past and Gone
TTITLE1=Mansions For Me
TTITLE2=Mother's Only Sleeping
TTITLE3=Blue Yodel #4
TTITLE4=Will You Be Loving Another Man
TTITLE5=How Will I Explain About You
TTITLE6=Wicked Path Of Sin
TTITLE7=I'm Going Back To Old Kentucky
TTITLE8=It's Mighty Dark To Travel
TTITLE9=I Hear A Sweet Voice Calling
TTITLE10=Little Cabin On The Hill
TTITLE11=My Rose Of Old Kentucky
TTITLE12=Blue Grass Breakdown
TTITLE13=Sweetheart You Done Me Wrong
TTITLE14=The Old Cross Road
TTITLE15=That Home Above
TTITLE16=Remember The Cross
TTITLE17=Little Community Church
TTITLE18=Along About The Daybreak
TTITLE19=When You Are Lonely
TTITLE20=Molly And Tenbrooks
TTITLE21=Shine Hallelujah Shine
TTITLE22=I'm Travelin' On And On
TTITLE23=Can't You Hear Me Calling
TTITLE24=Travelin' This Lonesome Road
TTITLE25=Blue Grass Stomp
EXTD=
EXTT0=
EXTT1=
EXTT2=
EXTT3=
EXTT4=
EXTT5=
EXTT6=
EXTT7=
EXTT8=
EXTT9=
EXTT10=
EXTT11=
EXTT12=
EXTT13=
EXTT14=
EXTT15=
EXTT16=
EXTT17=
EXTT18=
EXTT19=
EXTT20=
EXTT21=
EXTT22=
EXTT23=
EXTT24=
EXTT25=
PLAYORDER=
